<svg xmlns="http://www.w3.org/2000/svg" viewBox="0 0 177 100" preserveAspectRatio="none" role="presentation" data-boundary-metres="400" data-source-grid-spacing="20" data-working-grid-spacing="5" data-contour-interval="20"><desc>卑南主山 contours for a 400m by 400m area, generated from Taiwan MOI 20m DTM with a 5m interpolated working grid</desc><path d="M0 65.1C0.5 65.5 1.9 66.3 3 67.5C4.1 68.7 4.9 71.2 6.6 72.4C8.3 73.7 11.8 74.4 13.2 75C14.6 75.6 15.2 75.6 14.8 76.3C14.5 76.9 12.4 78.4 11.1 78.6C9.7 78.9 8.5 77.5 6.6 77.7C4.8 78 1.1 79.7 0 80.1M6.1 0C5.5 0.4 3.2 1.9 2.2 2.4C1.2 2.9 0.4 3 0 3.2M0 14.8C0.4 15 1.5 15.3 2.2 15.8C2.9 16.2 4.1 15.8 4.4 17.5C4.7 19.2 3.5 24.3 3.8 26.3C4.2 28.2 5.4 28.3 6.6 29.2C7.8 30.1 9.8 30.7 11.1 31.7C12.3 32.6 13.8 34.2 14.3 35C14.8 35.8 14.6 35.8 14.1 36.3C13.5 36.7 13.4 37.2 11.1 37.6C8.7 37.9 1.8 38.1 0 38.2M0 58.4C0.4 58.5 1.3 58.6 2.2 59.1C3.1 59.6 4.4 60.7 5.4 61.3C6.4 61.8 6.8 61.5 8.2 62.5C9.6 63.5 12.7 66.2 13.9 67.5C15.1 68.8 14.1 69.5 15.5 70.2C16.9 70.9 20.4 71.3 22.1 71.9C23.9 72.5 25 73.2 25.9 73.8C26.7 74.3 27 74.6 27.2 75C27.5 75.4 27.6 75.8 27.3 76.3C27 76.7 28.2 76.3 25.5 77.5C22.8 78.7 14.2 82.3 11.1 83.3C7.9 84.2 7.5 83.3 6.6 83.4C5.7 83.5 6.7 83.1 5.7 83.8C4.7 84.4 1.6 86.7 0.6 87.5C0 88.3 0 87.3 0.1 88.8C0.5 90.2 1.9 94.4 2.8 96.3C3.8 98.1 5.1 99.4 5.6 100M13.2 0C12.3 0.4 9 1.9 7.9 2.5C6.8 3.1 6.8 2.7 6.6 3.6C6.4 4.4 6.3 6.7 6.7 7.5C7.1 8.3 8.1 8.3 8.8 8.6C9.6 8.8 10 8.5 11.1 9C12.1 9.4 13.8 10.8 15.3 11.3C16.8 11.7 18 11.3 19.9 11.9C21.8 12.5 24.8 13.7 26.6 14.7C28.3 15.6 29.6 16.6 30.5 17.5C31.4 18.4 31.9 19.4 32 20C32 20.6 31.6 20.8 31.1 21.3C30.5 21.7 29.9 22.3 28.8 22.8C27.6 23.3 25.7 23.6 24.3 24.4C22.9 25.1 21 26.8 20.3 27.5C19.6 28.2 19.3 27.3 20 28.7C20.6 30.2 23.6 34.6 24.1 36.3C24.7 37.9 24.1 38.1 23.4 38.8C22.7 39.4 21.6 40 19.9 40.4C18.2 40.7 15.5 40.8 13.3 40.9C11.1 41 8.8 40.7 6.6 40.9C4.4 41 1.1 41.6 0 41.7M33.6 0C34.7 0.1 37.7 0.3 39.8 0.7C42 1.1 44.6 1.6 46.5 2.3C48.3 3 49.8 4.4 50.9 5C52 5.5 52.3 5.5 53.1 5.5C53.9 5.5 55.2 5.9 55.8 5C56.5 4.1 56.8 0.8 56.9 0M0 53.4C0.4 53.4 1.1 53.1 2.2 53.4C3.3 53.6 5.2 54.5 6.6 54.8C8.1 55.1 8.8 54.9 11.1 55.3C13.4 55.7 18.2 56.5 20.4 57.5C22.6 58.5 22.8 60.4 24.3 61.3C25.7 62.1 27.7 61.7 29 62.5C30.2 63.3 30.6 65.2 31.8 66.3C33 67.3 35.4 68.1 36.3 68.8C37.3 69.4 37.2 69.2 37.4 70C37.6 70.8 37.9 72.4 37.6 73.5C37.3 74.5 36 75.2 35.8 76.3C35.6 77.3 36.4 79.1 36.3 80C36.2 80.9 36.3 81.3 35.4 81.8C34.5 82.3 32.8 83 31 82.9C29.1 82.9 25.8 81.7 24.3 81.6C22.9 81.4 22.9 81.7 22.1 81.8C21.4 82 20.6 82.2 19.9 82.5C19.2 82.8 18.6 83.1 18 83.8C17.5 84.4 17 85.6 16.4 86.3C15.8 86.9 15 86.9 14.6 87.5C14.3 88.1 14.2 89.2 14.4 90C14.5 90.8 14.6 91.5 15.5 92.2C16.4 92.9 18.6 93.3 19.9 94.2C21.3 95.1 22.9 96.5 23.6 97.5C24.3 98.5 24.1 99.6 24.3 100M74.4 0C74.2 0.1 74 0.4 73 0.7C72 0.9 69.7 1.2 68.6 1.5C67.5 1.8 67.2 1.7 66.4 2.5C65.5 3.3 64.8 5.2 63.4 6.3C62 7.3 59.4 8.2 58.1 8.8C56.7 9.3 56.1 9.3 55.3 9.4C54.5 9.5 54.2 9.5 53.1 9.4C52 9.2 50.3 9 48.7 8.4C47 7.9 44.5 7 43.1 6.3C41.7 5.5 41.2 4.3 40.3 3.8C39.4 3.2 39.2 3 37.6 2.9C36.1 2.9 32.7 3.5 31 3.4C29.3 3.3 28.5 2.6 27.3 2.5C26.1 2.4 24.3 2.1 23.8 2.5C23.2 2.9 23.1 4.5 23.9 5C24.7 5.5 27.2 5 28.8 5.8C30.3 6.6 31.5 8.7 33.2 9.6C34.8 10.5 37.2 10.6 38.7 11.3C40.2 11.9 40.7 12.7 42 13.2C43.3 13.8 45.4 14.1 46.5 14.6C47.5 15.1 48.1 15.8 48.5 16.3C48.9 16.7 48.9 16.9 48.9 17.5C49 18.1 49.2 19.1 48.8 20C48.3 20.9 48.3 21.7 46.5 22.8C44.6 24 39.4 26.2 37.6 27C35.8 27.7 36.1 27.2 35.5 27.5C34.9 27.8 34.3 28.3 34.1 28.7C34 29.2 34.1 29.4 34.7 30C35.2 30.6 36.9 31.6 37.6 32.4C38.3 33.2 38.8 33.9 39 35C39.1 36.1 38.8 37.8 38.6 38.8C38.4 39.7 39.3 39.8 37.6 40.7C36 41.5 31 43.4 28.8 44C26.6 44.6 25.8 44.1 24.3 44.4C22.9 44.7 21.4 45.3 19.9 45.6C18.4 45.8 16.6 45.7 15.5 46C14.4 46.3 13.6 47 13.3 47.5C12.9 48 12.9 48.4 13.3 48.8C13.6 49.1 14.4 49.4 15.5 49.6C16.6 49.8 17.6 49.4 19.9 49.9C22.2 50.3 27.2 51.4 29.3 52.5C31.5 53.6 31.5 55.4 32.9 56.3C34.3 57.1 36.1 56.6 37.6 57.5C39.2 58.4 40.6 60.6 42 61.4C43.5 62.2 45.2 61.3 46.5 62.3C47.8 63.4 49.2 66.2 49.9 67.5C50.5 68.8 50.2 69.4 50.2 70C50.2 70.6 50.3 70.3 49.7 71.3C49.1 72.2 47.5 74.6 46.5 75.6C45.4 76.7 44.2 77 43.6 77.5C43 78 43 77.9 42.9 78.8C42.8 79.6 42.7 81.3 43.1 82.5C43.6 83.8 45.5 85.4 45.7 86.3C45.9 87.1 45.7 86.9 44.6 87.5C43.4 88.1 40.3 89.2 38.9 90C37.4 90.8 36.3 91.9 35.8 92.5C35.4 93.1 35.6 92.9 36.2 93.8C36.7 94.6 38.6 96.5 39.1 97.5C39.7 98.5 39.6 99.6 39.6 100M163.7 0C163.9 0.8 164.2 3.3 164.7 5C165.2 6.7 166.8 8.3 166.8 10C166.9 11.7 165.1 13.3 164.9 15C164.7 16.7 165 18.8 165.6 20C166.2 21.3 166.8 20.6 168.3 22.5C169.8 24.4 173.2 29.6 174.6 31.3C176.1 32.9 176.6 32.1 177 32.3M94.2 0C94.2 1 94.4 4.6 94.1 6.3C93.8 7.9 93 9.2 92.4 10C91.8 10.8 91.7 10.9 90.7 11C89.7 11.1 88.1 10.5 86.3 10.4C84.4 10.4 81.1 10.6 79.7 10.7C78.2 10.9 79.3 10.2 77.4 11.3C75.6 12.3 70.1 15.8 68.6 17.1C67.1 18.3 67.9 18.1 68.6 18.8C69.4 19.4 72.3 20.2 73 21.3C73.8 22.3 74 23.8 73.3 25C72.5 26.2 69.7 26.9 68.6 28.2C67.5 29.4 67 31.4 66.6 32.5C66.2 33.6 66.7 33.6 66.3 35C65.9 36.4 65.3 39.7 64.2 41C63 42.2 61.5 41.2 59.6 42.5C57.8 43.8 52.8 44.6 53.1 48.8C53.4 52.9 60.2 62.5 61.4 67.5C62.6 72.5 60.3 76.5 60.3 78.8C60.4 81 61 80.6 61.7 81.3C62.3 81.9 63.1 81.6 64.3 82.5C65.5 83.4 67 85.8 68.6 86.6C70.2 87.5 72.4 87.2 73.9 87.5C75.4 87.8 75.7 88.4 77.4 88.5C79.1 88.7 82.2 88.3 84.1 88.3C85.9 88.3 87.3 88.5 88.5 88.6C89.7 88.6 89.8 88.5 91.1 88.8C92.3 89 93.6 89.7 95.8 90C98 90.3 98.9 90.6 104 90.8C109 91.1 120.9 91.5 126.1 91.6C131.3 91.6 133 91.2 135 91C136.9 90.7 137.2 90.4 138 90C138.9 89.6 138.7 89.2 140.1 88.8C141.4 88.3 142.8 87.7 146 87.5C149.2 87.3 156.7 87.5 159.3 87.5C161.9 87.6 160.2 87.3 161.5 87.8C162.8 88.2 164.6 89.3 167.2 90C169.7 90.7 175.4 91.5 177 91.9M107.2 0C108.5 0.8 112.9 3.8 115.1 5C117.2 6.3 118.8 6.6 119.9 7.5C121 8.4 120.7 9.4 121.7 10.1C122.7 10.8 125.1 11.1 126.1 11.5C127.1 11.9 127.1 11.7 127.7 12.5C128.3 13.3 128.6 15.1 129.8 16.3C131 17.4 133.7 18.4 135 19.4C136.2 20.4 136.7 21.4 137.2 22.5C137.8 23.6 137.7 25 138.2 26.3C138.7 27.5 139.4 28.9 140.3 30C141.2 31.1 142.8 31.6 143.8 32.7C144.8 33.7 144.2 34.6 146.1 36.3C148 37.9 153.5 41 155.4 42.5C157.2 44 155.8 44.3 157.1 45.1C158.3 46 161.3 46.5 162.8 47.5C164.3 48.5 164.7 50.4 165.9 51.2C167.1 52.1 169 51.9 170.1 52.5C171.1 53.1 171.6 54.4 172.3 55C173 55.6 173.6 56 174.4 56.3C175.2 56.5 176.6 56.5 177 56.5M177 72.5C176.5 72.3 175 72.1 174.1 71.3C173.1 70.4 173.1 69 171.5 67.5C170 66 167.1 63.7 164.7 62.5C162.3 61.3 159.1 61.1 157.1 60.1C155.1 59.2 154.1 57.7 152.7 57C151.2 56.3 149.6 56.8 148.2 56C146.9 55.3 146 53.4 144.6 52.5C143.1 51.6 140.6 51.2 139.4 50.3C138.2 49.5 138.3 48.4 137.4 47.5C136.6 46.6 135 45.8 134.2 45C133.4 44.2 133.1 43.1 132.5 42.5C131.9 41.9 131.2 42.1 130.5 41.3C129.8 40.4 129.6 39.2 128.4 37.5C127.2 35.8 124.5 33.5 123.3 31.3C122 29 121.8 26 120.8 23.8C119.8 21.5 118.7 18.9 117.3 17.7C115.8 16.4 114.2 17.2 112.3 16.3C110.5 15.3 107.6 12.9 106.2 12.2C104.8 11.4 104.7 11.7 104 11.8C103.3 11.8 102.9 11.3 101.8 12.3C100.7 13.3 98.3 16 97.5 17.5C96.7 19 97.5 20 96.7 21.3C95.9 22.5 93.9 24.3 92.9 25.1C91.9 25.8 91.4 25.6 90.7 25.6C90 25.6 89.6 25.5 88.8 25C88 24.5 86.7 22.3 86.1 22.5C85.4 22.7 85.6 25.1 84.9 26.3C84.2 27.4 83.2 28.1 81.9 29.2C80.6 30.2 77.9 31.5 77.1 32.5C76.2 33.5 77.2 34.2 76.8 35C76.5 35.8 75.5 36.7 75 37.5C74.6 38.3 74.5 39.4 74.2 40C73.9 40.6 73.9 40.7 73 41.3C72.1 41.9 69.7 42.5 68.6 43.5C67.4 44.5 67 45.8 66.2 47.5C65.3 49.2 64 52.3 63.6 53.8C63.2 55.2 62.8 53.3 63.6 56.3C64.3 59.2 66.8 68.2 68 71.3C69.2 74.3 69.2 73.6 70.8 74.6C72.4 75.5 75.6 76.6 77.4 77.1C79.3 77.6 80.4 77.3 81.9 77.6C83.3 77.8 84.8 78.4 86.3 78.6C87.8 78.7 89.6 78.3 90.7 78.4C91.8 78.4 91.9 78.4 92.9 78.7C93.9 79 94.8 79.6 96.6 80C98.5 80.4 100.9 80.7 104 81C107.1 81.2 111.1 81.4 115 81.4C119 81.4 124.4 81.5 127.5 81.3C130.6 81 131.7 80.6 133.7 80C135.7 79.4 137 77.9 139.4 77.4C141.8 76.8 146 76.8 148.2 76.7C150.5 76.5 151 76.6 152.7 76.7C154.3 76.9 156.5 77.2 158 77.5C159.5 77.8 160.6 78.1 161.5 78.5C162.4 78.9 162.5 79.5 163.2 80C163.9 80.5 164.3 80.8 165.8 81.3C167.3 81.7 170.7 82 172.2 82.5C173.7 83 174 83.9 174.8 84.3C175.6 84.8 176.6 85 177 85.2M86.3 37.3C85.3 37.6 84.3 37.9 82.6 38.8C80.9 39.6 78.2 41 76.2 42.5C74.3 44 71.9 46.5 71 47.5C70 48.5 70.6 47.7 70.4 48.8C70.3 49.8 70 52.5 70 53.8C70.1 55 70.1 55 70.6 56.3C71.2 57.5 72.2 59.6 73.4 61.3C74.5 62.9 75.7 65.4 77.4 66.4C79.2 67.4 82.6 67.1 84.1 67.4C85.5 67.7 85.2 68 86.3 68.2C87.4 68.4 87.8 68.1 90.7 68.5C93.7 69 99.9 70.3 104 70.8C108 71.3 112.5 71.3 115 71.3C117.6 71.4 117.7 71.3 119.5 71.1C121.3 70.9 124.2 70.6 125.8 70C127.5 69.4 128.3 68.1 129.4 67.5C130.6 66.9 131.1 66.8 132.8 66.6C134.4 66.4 137.5 66.2 139.4 66.3C141.2 66.5 142.5 67.3 143.8 67.5C145.1 67.7 146.4 67.7 147.2 67.5C148 67.3 148.5 66.7 148.5 66.3C148.5 65.8 147.8 65.4 147 65C146.2 64.6 145.1 63.9 143.8 63.6C142.5 63.3 140.9 63.6 139.4 63.1C137.9 62.5 136.4 60.9 135 60.1C133.5 59.3 131.6 58.9 130.5 58.4C129.4 57.9 129.8 57.6 128.3 57.1C126.8 56.5 123.1 55.7 121.7 55C120.2 54.2 120.8 53.3 119.7 52.5C118.5 51.7 116 50.8 114.8 50C113.6 49.2 113.7 48.4 112.7 47.5C111.6 46.6 109.9 45.3 108.4 44.6C107 43.8 105.5 43.6 104 43C102.5 42.3 101 41.1 99.6 40.6C98.1 40.2 96.6 40.9 95.1 40.4C93.7 40 91.8 38.6 90.7 38.1C89.6 37.5 89.2 37.5 88.5 37.4C87.8 37.3 87.3 37.1 86.3 37.3ZM86.3 42.5C85.5 42.4 85 42.5 84.1 42.7C83.2 42.9 81.9 43.2 80.8 43.8C79.7 44.3 78.2 45.1 77.4 45.8C76.7 46.4 76.4 47 76.2 47.5C76 48 75.9 47.9 76.1 48.8C76.3 49.6 76.5 51.6 77.4 52.5C78.4 53.4 80.4 53.5 81.9 54.2C83.3 55 84.5 56.4 86.3 57C88 57.5 90.5 57.1 92.4 57.5C94.2 57.9 95 58.7 97.4 59.1C99.7 59.5 104.4 59.7 106.2 59.8C108 59.8 107.9 59.7 108.4 59.5C109 59.3 109.3 59.1 109.5 58.8C109.6 58.4 109.6 58.1 109.5 57.5C109.3 56.9 108.8 55.6 108.4 55C108 54.3 108 54.4 107 53.8C106 53.1 103.7 52.1 102.4 51.2C101.2 50.4 100.8 49.2 99.6 48.7C98.3 48.1 96.6 48.3 95.1 47.9C93.7 47.5 92.2 47 91.1 46.3C90 45.5 89.3 44.1 88.5 43.5C87.7 42.9 87 42.6 86.3 42.5Z" fill="none" stroke="#111827" stroke-opacity=".7" stroke-width=".42" stroke-linecap="round" stroke-linejoin="round"/><path d="M85.1 0C84.9 0.3 84.6 1 84.1 1.5C83.5 2 83 2.5 81.9 2.8C80.8 3.1 78.9 2.8 77.4 3.3C76 3.7 74.5 4.8 73 5.4C71.5 6 69.5 6.5 68.6 6.8C67.7 7.2 68.1 6.8 67.7 7.5C67.4 8.2 67 10.5 66.4 11.3C65.8 12 65.3 12 64.2 12.2C63 12.4 60.7 12.2 59.7 12.5C58.6 12.8 57.8 12.3 57.6 13.8C57.3 15.2 58.4 19.4 58.2 21.3C58 23.1 57.1 24 56.3 25C55.6 26 54.3 26.7 53.6 27.5C53 28.3 52.7 29.2 52.4 30C52.2 30.8 51.9 31.7 52.1 32.5C52.3 33.3 53.5 34.4 53.8 35C54 35.6 54.5 35.2 53.6 36.3C52.7 37.3 49.8 40.2 48.6 41.3C47.4 42.3 47.6 42 46.5 42.4C45.4 42.8 43.6 42.8 42 43.6C40.5 44.5 37.5 46.4 37.1 47.5C36.6 48.6 37.8 48.9 39.4 50C40.9 51.1 44.8 52.6 46.5 53.9C48.2 55.1 48.8 56.4 49.6 57.5C50.3 58.6 49.9 59.3 50.9 60.3C51.8 61.2 54.5 62.6 55.3 63.4C56.2 64.2 55.7 64.1 56 65C56.3 65.9 56.9 67.5 56.9 68.8C56.9 70 56.3 71.6 56 72.5C55.7 73.4 56.2 73.2 55.3 74.1C54.5 74.9 51.7 76.6 50.9 77.4C50 78.2 50.2 77.9 50.2 78.8C50.2 79.6 50 81.7 50.9 82.7C51.7 83.7 54.3 83.9 55.3 84.7C56.3 85.5 56.9 86.7 56.9 87.5C56.9 88.3 56 89 55.3 89.6C54.6 90.2 53 90.6 52.5 91.3C52 91.9 52 93.1 52.2 93.8C52.5 94.4 53 94.5 54.2 95C55.5 95.5 55.1 96.1 59.7 96.5C64.3 97 76.7 97.3 81.9 97.7C87 98 88.7 98.3 90.7 98.7C92.8 99.1 93.6 99.8 94.2 100M135.3 0C135.6 0.2 135.9 0.8 137 1.3C138.1 1.7 140.8 2.1 141.9 2.5C143.1 2.9 143.2 2.5 143.8 3.7C144.4 5 145 8.3 145.8 10C146.5 11.7 147 12.7 148.2 14C149.5 15.2 151.6 14.8 153.1 17.5C154.5 20.2 156.3 28.1 157.1 30.4C157.9 32.7 157.3 30.9 158.1 31.3C158.8 31.6 160.2 31.6 161.5 32.5C162.8 33.3 164.5 35.6 165.9 36.4C167.4 37.3 169 36.7 170.4 37.5C171.7 38.3 172.8 40.4 174 41.3C175.1 42.1 176.5 42.2 177 42.4M143.9 100C144.6 99.7 145.7 98.7 148.2 98.3C150.8 97.9 155.7 97.7 159.3 97.8C162.9 97.9 167.7 98.4 169.9 98.8C172.1 99.1 172.1 99.8 172.5 100" fill="none" stroke="#111827" stroke-opacity=".7" stroke-width=".42" stroke-linecap="round" stroke-linejoin="round"/></svg>