<svg xmlns="http://www.w3.org/2000/svg" viewBox="0 0 177 100" preserveAspectRatio="none" role="presentation" data-boundary-metres="400" data-source-grid-spacing="20" data-working-grid-spacing="5" data-contour-interval="20"><desc>爺ヶ岳 contours for a 400m by 400m area, generated from GSI DEM10B resampled to 20m with a 5m interpolated working grid</desc><path d="M161.1 0C161.5 0.3 162.2 1 163.7 1.6C165.3 2.1 168.2 3 170.4 3.6C172.6 4.1 175.9 4.5 177 4.7M151.6 0C152.2 0.4 153.6 1.7 154.9 2.5C156.2 3.3 158.2 4.2 159.3 4.7C160.4 5.2 160.3 5.2 161.5 5.5C162.8 5.7 165.8 5.7 166.8 6.3C167.9 6.8 167.2 7.9 167.8 8.8C168.4 9.6 169.6 10.7 170.4 11.3C171.2 12 171.5 12.3 172.6 12.7C173.7 13.1 176.3 13.7 177 13.9M142.7 0C142.9 0.2 142.9 0.6 143.8 1.1C144.7 1.5 146.8 2 148.2 2.8C149.7 3.6 151.2 5.3 152.7 6.1C154.1 6.9 155.2 6.7 157.1 7.5C158.9 8.4 162.4 10.1 163.7 11.1C165.1 12.1 164 13 165.1 13.8C166.2 14.5 168.4 15.2 170.4 15.7C172.3 16.2 175.9 16.7 177 16.9M177 67.8C176.6 68.2 175.9 69.2 174.8 69.9C173.7 70.7 171.5 71.7 170.6 72.5C169.7 73.3 169.5 74.1 169.4 75C169.4 75.9 169.1 76.7 170.4 77.7C171.6 78.6 175.9 80.3 177 80.8M17.8 0C17.4 0.5 16.3 2.2 15.5 3C14.7 3.9 13.6 4.5 13.2 5C12.7 5.5 12.6 5.5 13 6.3C13.4 7 14.8 8.2 15.5 9.3C16.2 10.3 16.9 11.5 17.2 12.5C17.4 13.5 17.3 14.4 17.2 15C17.1 15.6 16.8 15.8 16.5 16.3C16.2 16.7 16.4 17 15.5 17.5C14.6 17.9 12 18.6 11.1 19C10.1 19.4 10.2 19.6 9.8 20C9.4 20.4 9 20.6 8.8 21.3C8.6 21.9 8.9 23.1 8.7 23.8C8.4 24.4 8 24.6 7.3 25C6.6 25.4 5.3 25.8 4.4 26C3.5 26.2 2.7 26.1 1.9 26.3C1.2 26.4 0.3 27 0 27.1M127.4 0C127.9 0.2 129.1 0 130.5 1.1C131.9 2.1 135.1 4.8 135.7 6.3C136.4 7.7 134.4 8.8 134.2 10C134 11.3 133.8 12.7 134.8 13.8C135.9 14.8 138.9 15.5 140.4 16.3C141.9 17 142.5 18 143.8 18.4C145.1 18.9 146.8 18.5 148.2 18.8C149.7 19.1 151.2 19.8 152.7 20.2C154.1 20.5 155.6 20.4 157.1 20.8C158.6 21.2 159.3 22 161.5 22.6C163.7 23.3 167.8 24.3 170.4 24.8C172.9 25.2 175.9 25.2 177 25.3M177 42.1C176.5 42.3 175.4 43.3 174.3 43.8C173.1 44.2 171.3 44.5 170.4 44.9C169.4 45.3 169.8 44.4 168.4 46.3C167.1 48.1 163.3 54.2 162.2 56.3C161.1 58.3 162.2 57.5 161.8 58.8C161.5 60 160.6 62.5 159.8 63.7C159 65 158.3 65.5 157.1 66C155.9 66.6 154.5 66.1 152.7 67C150.8 67.9 147.4 70.3 146.2 71.3C145 72.2 145.7 72.1 145.6 72.5C145.6 72.9 145.2 72.9 146 73.9C146.8 75 149.4 77.8 150.5 78.8C151.6 79.7 151.6 79.3 152.7 79.6C153.8 79.9 156.1 80.1 157.1 80.4C158.1 80.7 158.1 80.7 158.9 81.3C159.6 81.8 160.3 83.1 161.5 83.7C162.7 84.2 164.9 84.4 165.9 84.8C167 85.3 166.9 84.6 167.7 86.3C168.4 87.9 169 92.4 170.4 94.7C171.7 97 175 99.1 176 100M37.1 0C36.4 0.4 34.6 1.7 33.2 2.2C31.8 2.8 29.9 2.8 28.8 3.3C27.7 3.7 27 4.3 26.5 5C26 5.7 25.6 6 25.8 7.5C26 9 27.3 12.3 27.6 13.8C27.8 15.2 27.4 15.4 27.2 16.3C26.9 17.1 26.6 17.9 25.9 18.8C25.3 19.6 23.9 20.4 23.3 21.3C22.6 22.1 22.8 22.9 22.2 23.8C21.7 24.6 20.5 25.3 19.9 26.1C19.4 26.9 19.6 28 18.9 28.7C18.1 29.5 16.8 30.3 15.5 30.7C14.2 31.1 12.4 30.7 11 31.3C9.6 31.8 9 32.9 7.1 33.8C5.3 34.6 1.2 35.9 0 36.4M118.7 0C119.2 0.3 120.6 0.7 121.7 1.6C122.8 2.4 124.7 4.2 125.4 5C126.1 5.8 126.1 5.4 125.9 6.3C125.7 7.1 124.4 8.8 124.2 10C124 11.3 124.3 12.9 124.6 13.8C124.9 14.6 125.1 14.5 126.1 14.9C127.1 15.3 129.1 15.4 130.5 16.2C132 17.1 133.6 19.2 135 20.1C136.3 20.9 137.8 20.6 138.8 21.3C139.8 21.9 140.1 23.2 140.9 23.8C141.7 24.3 142.6 24.6 143.8 24.8C145 24.9 146 24.6 148.2 24.7C150.5 24.8 154.1 25.1 157.1 25.5C160 26 163.7 26.8 165.9 27.4C168.2 27.9 168.5 28.5 170.4 28.9C172.2 29.3 175.9 29.6 177 29.8M177 33.6C176.3 33.9 173.8 34.8 172.6 35.6C171.4 36.5 171.6 37.5 169.8 38.8C167.9 40 163.5 42 161.5 43.3C159.5 44.5 158.6 45.3 157.9 46.3C157.1 47.2 157.6 47.9 157 48.8C156.3 49.6 155 49.5 153.9 51.2C152.9 53 151.4 57.6 150.4 59.4C149.5 61.1 149.3 60.9 148.2 61.6C147.1 62.3 145.3 62 143.8 63.3C142.3 64.6 140.7 68 139.4 69.3C138.1 70.6 136.6 70.7 136.1 71.3C135.5 71.8 135.6 71.9 135.9 72.5C136.2 73.1 137.5 74.2 137.7 75C137.9 75.8 137.2 76.9 137.2 77.5C137.2 78.1 136.6 77.9 137.7 78.8C138.8 79.6 142 82.1 143.8 82.8C145.6 83.5 146.8 82.5 148.2 82.9C149.7 83.2 151.1 84.3 152.7 84.8C154.2 85.4 156.2 85.2 157.3 86.3C158.5 87.3 159.2 89.8 159.6 91.3C160 92.7 159.8 94 159.6 95C159.5 96 159.2 96.7 158.7 97.5C158.2 98.3 157.1 99.6 156.8 100M28.1 100C28.2 99.9 28.3 99.5 28.8 99.4C29.2 99.3 29.9 99.2 31 99.3C32.1 99.3 32.1 99.5 35.4 99.5C38.7 99.5 47.1 99.5 50.9 99.2C54.7 98.8 55.8 97.9 58.3 97.5C60.9 97.1 64.3 96.6 66.4 96.6C68.5 96.6 69 96.8 70.8 97.4C72.6 97.9 76.1 99.6 77.2 100M53.1 0C53 0.4 52.7 1.8 52.4 2.5C52 3.2 52.1 3.8 50.9 4.5C49.7 5.1 47.1 5.1 45 6.3C43 7.4 39.7 10 38.8 11.3C37.9 12.5 39.6 12.5 39.6 13.8C39.5 15 39.6 16.8 38.5 18.8C37.4 20.7 34.3 24.1 33.2 25.3C32.1 26.6 32.1 25.7 31.8 26.3C31.6 26.8 32 28 31.5 28.7C31 29.5 29.5 30 28.8 30.8C28 31.7 27.8 33 27 33.8C26.3 34.5 25.6 34.8 24.3 35.2C23 35.7 20.7 35.7 19.2 36.3C17.8 36.8 17 38.2 15.7 38.8C14.3 39.3 12.9 38.7 11.1 39.6C9.2 40.4 6.3 42.8 4.4 43.6C2.6 44.3 0.7 44.1 0 44.2M112.3 0C112.8 0.8 115 3.5 115.2 5C115.4 6.5 113.5 7.5 113.5 8.8C113.4 10 114.5 11.7 114.9 12.5C115.3 13.3 114.9 13.2 116 13.8C117.2 14.3 120 14.9 121.7 15.8C123.4 16.8 124.6 18.4 126.1 19.3C127.7 20.2 129.9 20.5 130.9 21.3C132 22 131.8 23.1 132.3 23.8C132.8 24.4 133 24.4 134.1 25C135.3 25.6 138 26.5 139.4 27.1C140.7 27.7 141.5 28.4 142.3 28.7C143 29.1 142.5 29.1 143.8 29.2C145.2 29.3 148 29 150.4 29.3C152.9 29.7 157 30.3 158.4 31.3C159.7 32.2 158.8 33.9 158.6 35C158.3 36.1 158.1 37.3 157.1 38C156.1 38.6 153.7 38.8 152.7 39.1C151.6 39.5 152.6 38.8 151 40C149.3 41.2 144.4 44.4 142.7 46.3C141.1 48.1 141.5 49.2 141.1 51.2C140.8 53.3 141.1 56.7 140.7 58.8C140.2 60.8 139.6 62.1 138.2 63.7C136.8 65.4 134.1 67.5 132.3 68.8C130.4 70 128.1 70.6 127.1 71.3C126.1 71.9 125.8 71.3 126.3 72.5C126.8 73.8 128.7 77 130.1 78.8C131.6 80.5 133.1 81.7 135 82.9C136.8 84.2 139.4 85.1 141.4 86.3C143.5 87.4 146 89.2 147.1 90C148.3 90.8 148.1 90.8 148.2 91.3C148.3 91.7 148.3 92.1 147.9 92.5C147.5 92.9 147.4 93.2 146 93.6C144.6 94 142.7 94.7 139.4 95C136.1 95.3 131.6 95.1 126.1 95.4C120.6 95.7 111.7 96.7 106.2 96.9C100.7 97.2 97 97.1 92.9 96.8C88.9 96.5 84.4 95.8 81.9 95.3C79.3 94.8 79.1 94.4 77.7 93.8C76.3 93.1 74.9 91.8 73.4 91.3C71.9 90.7 70.1 90.6 68.6 90.5C67 90.4 66.1 90.3 64.2 90.5C62.2 90.6 59.4 90.8 56.8 91.3C54.2 91.7 51.1 92.8 48.7 93.2C46.2 93.6 45.4 93.6 42 93.5C38.7 93.4 32.1 92.5 28.8 92.5C25.4 92.6 23.6 93.4 22.1 93.7C20.6 94 20.5 94.1 19.9 94.5C19.3 94.9 18.7 95.3 18.4 96.3C18.1 97.2 18.1 99.4 18 100M66.3 0C65.5 1 62.4 4.8 61.5 6.3C60.5 7.7 61 8.2 60.7 8.8C60.4 9.3 60.7 9.2 59.7 9.7C58.8 10.1 56.4 10.4 55.1 11.3C53.7 12.1 53.1 12.9 51.8 15C50.5 17.1 48.5 21.9 47.3 23.8C46.2 25.6 46 24.6 44.9 26.3C43.8 27.9 42 32.1 40.7 33.8C39.5 35.4 38.4 35.1 37.6 35.9C36.8 36.8 36.7 38 35.9 38.8C35.2 39.5 34.5 39.8 33.2 40.2C31.9 40.7 29.7 40.7 28.2 41.3C26.8 41.8 26 43.1 24.4 43.8C22.8 44.4 20.1 44.6 18.7 45C17.3 45.4 17 45.6 16.1 46.3C15.2 46.9 14.8 48.1 13.2 48.8C11.6 49.4 8.8 50 6.6 50.3C4.4 50.5 1.1 50.3 0 50.3M103.2 0C103.3 0 103.4 0 104 0.3C104.5 1.1 105.9 3.6 106.4 5C106.9 6.4 106.5 7.3 106.9 8.8C107.4 10.2 108.1 12.7 109.1 13.8C110.1 14.8 111.5 14.2 112.8 15C114.2 15.7 115.7 17.4 117.3 18.2C118.8 19.1 121.1 19.5 122.3 20C123.4 20.5 123.4 20.5 124 21.3C124.7 22 125 23.9 126.1 24.7C127.2 25.5 129.1 25.3 130.5 26.1C132 26.9 133.5 28.8 135 29.7C136.4 30.5 138.3 30.6 139.4 31.3C140.5 31.9 141 32.9 141.4 33.8C141.8 34.6 141.9 35.6 141.8 36.3C141.7 36.9 141.2 37.1 140.8 37.5C140.5 37.9 140.4 38.2 139.4 38.6C138.4 39 135.8 39.6 134.9 40C133.9 40.4 134.1 40.2 133.6 41.3C133.1 42.3 132.3 44.2 131.8 46.3C131.3 48.3 130.7 51.5 130.8 53.8C131 56 132.4 58.3 132.8 60C133.1 61.6 133.1 62.7 132.8 63.7C132.4 64.8 131.6 65.5 130.5 66.1C129.4 66.7 127.2 67 126.1 67.5C125 67.9 124.8 68.2 123.9 68.8C123 69.5 121.2 70.6 120.5 71.3C119.9 71.9 119.5 70.9 120.1 72.5C120.6 74.1 122.9 78.9 123.9 80.6C124.9 82.3 125 82 126.1 82.7C127.3 83.5 129.9 84.4 130.7 85C131.6 85.6 131.2 85.7 131.1 86.3C131.1 86.8 132.1 87.6 130.5 88C129 88.5 125 88.9 121.7 89.2C118.4 89.5 114.3 89.8 110.6 89.9C106.9 90.1 102.9 90.4 99.6 90.2C96.2 90.1 92.9 89.6 90.7 89.1C88.5 88.6 88.5 88 86.3 87.3C84.1 86.6 80.8 85.5 77.4 84.9C74.1 84.3 70.1 83.8 66.4 83.7C62.7 83.6 59 83.9 55.3 84.3C51.6 84.6 50.1 85.4 44.3 85.7C38.4 86 25.1 85.7 19.9 86C14.8 86.4 14.8 87.2 13.3 87.6C11.8 88.1 11.6 88.4 11.1 88.8C10.5 89.2 10.3 89.6 10 90C9.6 90.4 9.4 89.6 9.1 91.3C8.8 92.9 8.4 98.5 8.2 100M86.3 13.1C85.2 13.7 83 14.9 81.9 15.9C80.8 17 80.8 18.1 79.7 19.4C78.5 20.7 76 22.8 74.9 23.8C73.8 24.7 73.6 24 73 24.8C72.4 25.6 72.3 26.8 71.2 28.7C70.1 30.7 67.2 34.6 66.4 36.3C65.5 37.9 66.8 38.1 66.4 38.8C66 39.4 65 39.4 64.2 40.2C63.3 41.1 62 43 61.3 43.8C60.5 44.5 60.7 44.4 59.7 44.8C58.7 45.2 56.3 45.5 55.3 46.2C54.3 46.8 54.3 47.9 53.6 48.8C52.8 49.6 52.2 50.3 50.9 51.1C49.6 51.9 47.4 53.1 45.9 53.8C44.5 54.4 43.4 54.7 42 55C40.7 55.3 38.8 55.3 37.6 55.5C36.5 55.7 35.9 55.9 35.2 56.3C34.5 56.6 35.7 56.6 33.2 57.6C30.7 58.7 22.9 61.4 20.3 62.5C17.7 63.6 18.5 63.8 17.7 64.2C16.9 64.6 16.6 64.8 15.5 65C14.4 65.2 12.4 65 11.1 65.2C9.7 65.4 8.3 65.9 7.3 66.3C6.4 66.6 6.2 66.5 5.5 67.5C4.7 68.5 2.7 71.6 2.9 72.5C3 73.4 3.8 73.3 6.6 73.1C9.5 72.9 14 71.6 19.9 71.2C25.8 70.8 36.1 70.9 42 70.5C47.9 70.2 51.3 69.3 55.3 68.9C59.4 68.5 61.2 68 66.4 68.2C71.5 68.5 82.5 70 86.3 70.5C90.1 71 88.3 70.8 89.4 71.3C90.5 71.7 92 72.8 92.9 73.2C93.9 73.6 93.7 73.7 95.1 73.8C96.6 73.9 100.3 73.8 101.8 73.7C103.2 73.5 103.3 73.5 104 72.9C104.6 72.2 105.8 71.1 105.7 70C105.7 68.9 103.7 67.1 103.4 66.3C103.2 65.4 103.3 65.6 104.1 65C105 64.4 107 63.1 108.4 62.6C109.9 62 111.8 62.2 112.8 61.8C113.9 61.4 114.8 61.3 114.8 60C114.9 58.7 113.3 56.9 113.1 53.8C112.9 50.6 112.9 44.4 113.5 41.3C114.1 38.1 116.2 36.5 116.8 35C117.3 33.5 117.2 34 116.7 32.5C116.3 31 115.8 28.1 114.3 26.3C112.7 24.4 109.2 22.3 107.5 21.3C105.8 20.2 105.3 20.2 104 19.9C102.7 19.6 100.7 19.7 99.6 19.5C98.5 19.3 97.9 19.3 97.4 18.8C96.9 18.2 97.1 17 96.7 16.3C96.4 15.5 95.8 15 95.1 14.5C94.5 14 93.7 13.6 92.9 13.2C92.2 12.9 91.4 12.7 90.7 12.6C90 12.5 89.2 12.5 88.5 12.6C87.8 12.6 87.4 12.5 86.3 13.1ZM90.7 23.7C89.3 24.7 86 27.6 84.6 28.7C83.1 29.9 82.8 29.1 81.9 30.3C80.9 31.6 79.5 34.8 79 36.3C78.5 37.7 79.1 38 78.9 38.8C78.6 39.5 78 40.3 77.4 40.9C76.9 41.5 77.3 41.4 75.5 42.5C73.8 43.6 69 46 66.8 47.5C64.7 49 63.4 50 62.5 51.2C61.5 52.5 61.7 53.8 61.1 55C60.5 56.3 58.6 57.7 58.7 58.8C58.8 59.8 60.9 60.7 61.8 61.3C62.7 61.8 60.1 61.6 64.2 62.1C68.2 62.6 81.1 63.9 86.3 64.3C91.4 64.7 92.9 64.8 95.1 64.4C97.4 63.9 97.9 62.5 99.6 61.8C101.2 61 104 60.5 105 60C106.1 59.5 105.5 61 105.9 58.8C106.2 56.5 107.3 49.6 107.1 46.3C106.9 42.9 104.9 40.4 104.6 38.8C104.3 37.1 104.9 37.3 105.5 36.3C106.2 35.2 108 33.5 108.6 32.5C109.1 31.5 108.8 30.8 108.6 30C108.4 29.2 108 28.3 107.2 27.5C106.4 26.7 106 25.8 104 25.1C102 24.5 97 23.8 95.1 23.5C93.3 23.1 93.7 23.2 92.9 23.2C92.2 23.3 92.1 22.8 90.7 23.7ZM90.7 41.8C89.9 42.1 89.3 43 88 43.8C86.6 44.5 84.4 45.1 82.6 46.3C80.9 47.4 78.8 49.7 77.4 50.5C76.1 51.3 75.2 50.9 74.5 51.2C73.9 51.6 73.5 52.1 73.4 52.5C73.4 52.9 73.9 53.5 74.2 53.8C74.5 54 74.3 54.1 75.2 54.3C76.1 54.5 77.8 54.8 79.7 54.9C81.5 55 84.1 55 86.3 55C88.5 54.9 91.4 54.8 92.9 54.6C94.4 54.5 94.6 55 95.1 54C95.7 53 96.2 50.3 96.3 48.8C96.4 47.2 96.4 46.2 95.9 45C95.3 43.8 93.8 42.2 92.9 41.7C92.1 41.1 91.5 41.4 90.7 41.8Z" fill="none" stroke="#111827" stroke-opacity=".7" stroke-width=".42" stroke-linecap="round" stroke-linejoin="round"/><path d="M4.7 0C4.4 1.5 3 6.5 3.3 8.8C3.6 11 6 12.7 6.5 13.8C7 14.8 6.5 14.4 6.1 15C5.6 15.6 4.7 16.7 3.7 17.5C2.7 18.3 0.6 19.2 0 19.6M135.4 0C136 0.4 138.2 1.3 139.4 2.2C140.6 3 141.7 4.3 142.4 5C143.1 5.7 143.3 5.6 143.5 6.3C143.7 6.9 143.3 8.1 143.5 8.8C143.7 9.4 143.8 9.6 144.6 10C145.4 10.4 147 10.7 148.2 11.3C149.5 12 150.5 13.1 152 13.8C153.5 14.4 155.5 14.6 157.1 15.4C158.7 16.1 159.3 17.6 161.5 18.4C163.7 19.2 167.8 19.6 170.4 20C172.9 20.4 175.9 20.6 177 20.8M177 52C176.2 52.7 173.5 54.3 172.5 56.3C171.4 58.2 171.5 61.7 170.7 63.7C169.9 65.8 168.5 67.7 167.7 68.8C166.9 69.8 167 69.7 165.9 70.1C164.9 70.5 162.7 70.7 161.5 71.1C160.3 71.5 159.3 72.1 158.5 72.5C157.8 72.9 157.4 73.3 157.1 73.8C156.9 74.2 156.8 74.4 157.1 75C157.5 75.6 158.5 76.9 159.2 77.5C159.9 78.1 160.2 78.4 161.3 78.8C162.4 79.1 164.8 79.4 165.9 79.8C167.1 80.1 167.3 80.3 168.2 81C169 81.6 169.7 82.9 171 83.8C172.2 84.6 174.6 85.5 175.6 86.3C176.6 87 176.8 87.8 177 88.1M81.6 0C80.6 1.5 77.4 7 76 8.8C74.5 10.5 73.8 9.7 73 10.6C72.2 11.4 71.9 12.9 71.1 13.8C70.4 14.6 69.4 15.1 68.6 15.6C67.8 16 67 15.9 66.2 16.3C65.5 16.6 64.8 16.8 64.2 17.7C63.5 18.5 62.6 20.2 62.3 21.3C62 22.3 62.7 22.5 62.3 23.8C61.8 25 60.8 27.3 59.7 28.5C58.6 29.8 56.7 29.5 55.7 31.3C54.6 33 54.4 37.1 53.6 38.8C52.8 40.4 52.8 39.8 50.9 41.1C49 42.5 44.3 45.7 42 46.9C39.8 48 38.6 47.6 37.6 47.9C36.7 48.3 37.1 48.5 36.4 48.8C35.6 49 34.5 49.4 33.2 49.7C31.9 50 29.9 50 28.8 50.3C27.7 50.5 27.6 50.5 26.6 51C25.5 51.6 23.8 53.2 22.7 53.8C21.6 54.3 21.5 53.9 19.9 54.6C18.3 55.4 15.5 57.4 13.3 58.2C11.1 59 8.8 59.3 6.6 59.6C4.4 59.8 1.1 59.8 0 59.8M85.3 0C86.2 0.4 89.1 1.9 90.7 2.5C92.4 3.1 94 3.2 95.1 3.6C96.3 4.1 96.9 4.6 97.5 5C98 5.4 98.5 5.6 98.6 6.3C98.8 6.9 98.4 8.1 98.5 8.8C98.7 9.4 99 9.7 99.6 10.1C100.1 10.6 101.1 10.6 101.7 11.3C102.4 11.9 102.2 12.7 103.3 13.8C104.4 14.8 106.8 16.9 108.4 17.8C110 18.7 111.5 18.6 112.8 19.1C114.2 19.7 115.6 20.5 116.5 21.3C117.4 22 117.2 22.9 118.2 23.8C119.2 24.6 121.6 25.4 122.5 26.3C123.5 27.1 123.5 28.1 124 28.7C124.4 29.4 124.4 29.6 125.5 30C126.5 30.4 129.2 30.8 130.2 31.3C131.1 31.7 131.1 31.8 131.2 32.5C131.3 33.2 131.4 34.7 130.5 35.7C129.7 36.7 127.4 37.4 126.1 38.5C124.8 39.7 123.6 41.2 122.9 42.5C122.1 43.8 121.9 44.4 121.7 46.3C121.5 48.1 121.1 51.7 121.4 53.8C121.7 55.8 123.1 57.1 123.5 58.8C123.8 60.4 124 62.7 123.7 63.7C123.4 64.8 122.8 65 121.7 65.3C120.6 65.6 118.3 65.4 117.3 65.6C116.2 65.7 115.8 65.9 115.3 66.3C114.8 66.6 114.6 66.5 114.4 67.5C114.1 68.5 113.5 70.6 113.6 72.5C113.7 74.4 114.8 77.3 115 78.8C115.1 80.2 114.7 80.6 114.3 81.3C114 81.9 114.9 82.4 112.8 82.6C110.7 82.8 107.1 83.1 101.8 82.4C96.4 81.8 84.9 79.6 80.9 78.8C76.8 77.9 78.6 77.5 77.4 77.1C76.3 76.7 75.3 76.5 73.8 76.3C72.4 76 71.3 75.8 68.6 75.7C65.9 75.7 60.1 75.8 57.5 75.9C54.9 75.9 54.5 76 53.1 76.3C51.8 76.5 51.1 77.1 49.6 77.5C48 77.9 46 78.5 43.6 78.8C41.2 79 38.8 78.9 35.2 78.8C31.7 78.6 26.2 77.9 22.1 78C18.1 78.1 14 78.7 11.1 79.2C8.1 79.8 6.4 80.1 4.5 81.3C2.7 82.4 0.8 85.1 0 85.9" fill="none" stroke="#111827" stroke-opacity=".7" stroke-width=".42" stroke-linecap="round" stroke-linejoin="round"/></svg>